<mxfile host="Electron" modified="2023-11-27T09:27:02.511Z" agent="Mozilla/5.0 (Windows NT 10.0; Win64; x64) AppleWebKit/537.36 (KHTML, like Gecko) draw.io/22.0.2 Chrome/114.0.5735.289 Electron/25.8.4 Safari/537.36" etag="_l5Nx3AtRJE4igK8GIrV" version="22.0.2" type="device">
  <diagram id="C5RBs43oDa-KdzZeNtuy" name="Page-1">
    <mxGraphModel dx="1256" dy="752" grid="1" gridSize="10" guides="1" tooltips="1" connect="1" arrows="1" fold="1" page="1" pageScale="1" pageWidth="827" pageHeight="1169" background="none" math="0" shadow="0">
      <root>
        <mxCell id="WIyWlLk6GJQsqaUBKTNV-0" />
        <mxCell id="WIyWlLk6GJQsqaUBKTNV-1" parent="WIyWlLk6GJQsqaUBKTNV-0" />
        <mxCell id="O6kwRCL_06sW0Yhjf2Mc-2" value="начало" style="ellipse;whiteSpace=wrap;html=1;strokeColor=#36393d;fillColor=#eeeeee;fontColor=#000000;" parent="WIyWlLk6GJQsqaUBKTNV-1" vertex="1">
          <mxGeometry x="-750" y="60" width="120" height="50" as="geometry" />
        </mxCell>
        <mxCell id="CJra_WSzJUt3smpGOyG3-4" value="Цикл 1&lt;br&gt;i &amp;gt; lenght(a)" style="strokeWidth=1;html=1;shape=mxgraph.flowchart.loop_limit;whiteSpace=wrap;strokeColor=#36393d;fillColor=#eeeeee;fontColor=#000000;" parent="WIyWlLk6GJQsqaUBKTNV-1" vertex="1">
          <mxGeometry x="-750" y="290" width="120" height="70" as="geometry" />
        </mxCell>
        <mxCell id="CJra_WSzJUt3smpGOyG3-32" value="" style="rounded=0;html=1;jettySize=auto;orthogonalLoop=1;fontSize=11;endArrow=block;endFill=0;endSize=8;strokeWidth=1;shadow=0;labelBackgroundColor=none;edgeStyle=orthogonalEdgeStyle;strokeColor=#36393d;fillColor=#eeeeee;fontColor=#000000;" parent="WIyWlLk6GJQsqaUBKTNV-1" edge="1">
          <mxGeometry relative="1" as="geometry">
            <mxPoint x="-690.34" y="110" as="sourcePoint" />
            <mxPoint x="-690.07" y="140" as="targetPoint" />
          </mxGeometry>
        </mxCell>
        <mxCell id="CJra_WSzJUt3smpGOyG3-35" value="" style="rounded=0;html=1;jettySize=auto;orthogonalLoop=1;fontSize=11;endArrow=block;endFill=0;endSize=8;strokeWidth=1;shadow=0;labelBackgroundColor=none;edgeStyle=orthogonalEdgeStyle;strokeColor=#36393d;fillColor=#eeeeee;fontColor=#000000;" parent="WIyWlLk6GJQsqaUBKTNV-1" edge="1">
          <mxGeometry relative="1" as="geometry">
            <mxPoint x="-690.29" y="190" as="sourcePoint" />
            <mxPoint x="-690.02" y="220" as="targetPoint" />
          </mxGeometry>
        </mxCell>
        <mxCell id="gXV8-5lS1U5zjnlFUvk6-14" value="&lt;span style=&quot;font-size: 10px;&quot;&gt;j &amp;gt; length(b)&lt;/span&gt;" style="rhombus;whiteSpace=wrap;html=1;shadow=0;fontFamily=Helvetica;fontSize=12;align=center;strokeWidth=1;spacing=6;spacingTop=-4;strokeColor=#36393d;fillColor=#eeeeee;fontColor=#000000;" parent="WIyWlLk6GJQsqaUBKTNV-1" vertex="1">
          <mxGeometry x="-508" y="60" width="120" height="70" as="geometry" />
        </mxCell>
        <mxCell id="Kg9K-jLbq-SvP9runcIR-3" value="" style="rounded=0;html=1;jettySize=auto;orthogonalLoop=1;fontSize=11;endArrow=block;endFill=0;endSize=8;strokeWidth=1;shadow=0;labelBackgroundColor=none;edgeStyle=orthogonalEdgeStyle;strokeColor=#36393d;fillColor=#eeeeee;fontColor=#000000;" parent="WIyWlLk6GJQsqaUBKTNV-1" edge="1">
          <mxGeometry relative="1" as="geometry">
            <mxPoint x="-690.2900000000001" y="600" as="sourcePoint" />
            <mxPoint x="-690.0200000000001" y="630" as="targetPoint" />
          </mxGeometry>
        </mxCell>
        <mxCell id="Kg9K-jLbq-SvP9runcIR-16" value="Цикл 2" style="strokeWidth=1;html=1;shape=mxgraph.flowchart.loop_limit;whiteSpace=wrap;strokeColor=#36393d;fillColor=#eeeeee;fontColor=#000000;direction=west;" parent="WIyWlLk6GJQsqaUBKTNV-1" vertex="1">
          <mxGeometry x="-750" y="630" width="120" height="70" as="geometry" />
        </mxCell>
        <mxCell id="SMtHybRJAJT8ehfguQuV-0" value="i = 1" style="rounded=0;whiteSpace=wrap;html=1;strokeColor=#36393d;fillColor=#eeeeee;fontColor=#000000;" parent="WIyWlLk6GJQsqaUBKTNV-1" vertex="1">
          <mxGeometry x="-750" y="220" width="120" height="40" as="geometry" />
        </mxCell>
        <mxCell id="SMtHybRJAJT8ehfguQuV-1" value="j = 1&lt;br&gt;k = 1" style="rounded=0;whiteSpace=wrap;html=1;strokeColor=#36393d;fillColor=#eeeeee;fontColor=#000000;" parent="WIyWlLk6GJQsqaUBKTNV-1" vertex="1">
          <mxGeometry x="-750" y="390" width="120" height="40" as="geometry" />
        </mxCell>
        <mxCell id="SMtHybRJAJT8ehfguQuV-4" value="Цикл 2&lt;br&gt;(j &amp;lt;= length(b)) и &lt;br&gt;(k &amp;lt;= length(a)) и (a[k] = b[j])" style="strokeWidth=1;html=1;shape=mxgraph.flowchart.loop_limit;whiteSpace=wrap;strokeColor=#36393d;fillColor=#eeeeee;fontColor=#000000;" parent="WIyWlLk6GJQsqaUBKTNV-1" vertex="1">
          <mxGeometry x="-750" y="460" width="120" height="70" as="geometry" />
        </mxCell>
        <mxCell id="-R8I4u1Fp1ptkWdgF8gj-0" value="Ввод&lt;br&gt;a,b" style="shape=parallelogram;perimeter=parallelogramPerimeter;whiteSpace=wrap;html=1;fixedSize=1;strokeColor=#36393d;fillColor=#eeeeee;fontColor=#000000;" parent="WIyWlLk6GJQsqaUBKTNV-1" vertex="1">
          <mxGeometry x="-750" y="140" width="120" height="50" as="geometry" />
        </mxCell>
        <mxCell id="-R8I4u1Fp1ptkWdgF8gj-1" value="" style="rounded=0;html=1;jettySize=auto;orthogonalLoop=1;fontSize=11;endArrow=block;endFill=0;endSize=8;strokeWidth=1;shadow=0;labelBackgroundColor=none;edgeStyle=orthogonalEdgeStyle;strokeColor=#36393d;fillColor=#eeeeee;fontColor=#000000;" parent="WIyWlLk6GJQsqaUBKTNV-1" edge="1">
          <mxGeometry relative="1" as="geometry">
            <mxPoint x="-690.29" y="260" as="sourcePoint" />
            <mxPoint x="-690.02" y="290" as="targetPoint" />
          </mxGeometry>
        </mxCell>
        <mxCell id="-R8I4u1Fp1ptkWdgF8gj-2" value="" style="rounded=0;html=1;jettySize=auto;orthogonalLoop=1;fontSize=11;endArrow=block;endFill=0;endSize=8;strokeWidth=1;shadow=0;labelBackgroundColor=none;edgeStyle=orthogonalEdgeStyle;strokeColor=#36393d;fillColor=#eeeeee;fontColor=#000000;" parent="WIyWlLk6GJQsqaUBKTNV-1" edge="1">
          <mxGeometry relative="1" as="geometry">
            <mxPoint x="-690.29" y="360" as="sourcePoint" />
            <mxPoint x="-690.02" y="390" as="targetPoint" />
          </mxGeometry>
        </mxCell>
        <mxCell id="-R8I4u1Fp1ptkWdgF8gj-3" value="" style="rounded=0;html=1;jettySize=auto;orthogonalLoop=1;fontSize=11;endArrow=block;endFill=0;endSize=8;strokeWidth=1;shadow=0;labelBackgroundColor=none;edgeStyle=orthogonalEdgeStyle;strokeColor=#36393d;fillColor=#eeeeee;fontColor=#000000;" parent="WIyWlLk6GJQsqaUBKTNV-1" edge="1">
          <mxGeometry relative="1" as="geometry">
            <mxPoint x="-690.14" y="430" as="sourcePoint" />
            <mxPoint x="-689.87" y="460" as="targetPoint" />
          </mxGeometry>
        </mxCell>
        <mxCell id="-R8I4u1Fp1ptkWdgF8gj-4" value="" style="rounded=0;html=1;jettySize=auto;orthogonalLoop=1;fontSize=11;endArrow=block;endFill=0;endSize=8;strokeWidth=1;shadow=0;labelBackgroundColor=none;edgeStyle=orthogonalEdgeStyle;strokeColor=#36393d;fillColor=#eeeeee;fontColor=#000000;" parent="WIyWlLk6GJQsqaUBKTNV-1" edge="1">
          <mxGeometry relative="1" as="geometry">
            <mxPoint x="-690.1999999999999" y="530" as="sourcePoint" />
            <mxPoint x="-689.93" y="560" as="targetPoint" />
          </mxGeometry>
        </mxCell>
        <mxCell id="-R8I4u1Fp1ptkWdgF8gj-5" value="j = j + 1&lt;br&gt;k = k + 1" style="rounded=0;whiteSpace=wrap;html=1;strokeColor=#36393d;fillColor=#eeeeee;fontColor=#000000;" parent="WIyWlLk6GJQsqaUBKTNV-1" vertex="1">
          <mxGeometry x="-750" y="560" width="120" height="40" as="geometry" />
        </mxCell>
        <mxCell id="-R8I4u1Fp1ptkWdgF8gj-6" value="" style="rounded=0;html=1;jettySize=auto;orthogonalLoop=1;fontSize=11;endArrow=block;endFill=0;endSize=8;strokeWidth=1;shadow=0;labelBackgroundColor=none;edgeStyle=orthogonalEdgeStyle;strokeColor=#36393d;fillColor=#eeeeee;fontColor=#000000;entryX=0.5;entryY=0;entryDx=0;entryDy=0;" parent="WIyWlLk6GJQsqaUBKTNV-1" target="gXV8-5lS1U5zjnlFUvk6-14" edge="1">
          <mxGeometry relative="1" as="geometry">
            <mxPoint x="-690.1700000000001" y="700" as="sourcePoint" />
            <mxPoint x="-689.9000000000001" y="730" as="targetPoint" />
            <Array as="points">
              <mxPoint x="-690" y="720" />
              <mxPoint x="-570" y="720" />
              <mxPoint x="-570" y="40" />
              <mxPoint x="-448" y="40" />
            </Array>
          </mxGeometry>
        </mxCell>
        <mxCell id="-R8I4u1Fp1ptkWdgF8gj-7" value="" style="rounded=0;html=1;jettySize=auto;orthogonalLoop=1;fontSize=11;endArrow=block;endFill=0;endSize=8;strokeWidth=1;shadow=0;labelBackgroundColor=none;edgeStyle=orthogonalEdgeStyle;strokeColor=#36393d;fillColor=#eeeeee;fontColor=#000000;" parent="WIyWlLk6GJQsqaUBKTNV-1" edge="1">
          <mxGeometry relative="1" as="geometry">
            <mxPoint x="-448.1700000000001" y="130" as="sourcePoint" />
            <mxPoint x="-447.9000000000001" y="160" as="targetPoint" />
          </mxGeometry>
        </mxCell>
        <mxCell id="-R8I4u1Fp1ptkWdgF8gj-8" value="" style="rounded=0;html=1;jettySize=auto;orthogonalLoop=1;fontSize=11;endArrow=block;endFill=0;endSize=8;strokeWidth=1;shadow=0;labelBackgroundColor=none;edgeStyle=orthogonalEdgeStyle;strokeColor=#36393d;fillColor=#eeeeee;fontColor=#000000;exitX=1;exitY=0.5;exitDx=0;exitDy=0;" parent="WIyWlLk6GJQsqaUBKTNV-1" source="gXV8-5lS1U5zjnlFUvk6-14" edge="1">
          <mxGeometry relative="1" as="geometry">
            <mxPoint x="-368.0000000000001" y="100" as="sourcePoint" />
            <mxPoint x="-318" y="160" as="targetPoint" />
            <Array as="points">
              <mxPoint x="-318" y="95" />
              <mxPoint x="-318" y="160" />
            </Array>
          </mxGeometry>
        </mxCell>
        <mxCell id="-R8I4u1Fp1ptkWdgF8gj-9" value="Цикл 3&lt;br&gt;y = 1" style="strokeWidth=1;html=1;shape=mxgraph.flowchart.loop_limit;whiteSpace=wrap;strokeColor=#36393d;fillColor=#eeeeee;fontColor=#000000;" parent="WIyWlLk6GJQsqaUBKTNV-1" vertex="1">
          <mxGeometry x="-508" y="220" width="120" height="70" as="geometry" />
        </mxCell>
        <mxCell id="-R8I4u1Fp1ptkWdgF8gj-10" value="c = c + a[i]&lt;br&gt;i = i + 1" style="rounded=0;whiteSpace=wrap;html=1;strokeColor=#36393d;fillColor=#eeeeee;fontColor=#000000;" parent="WIyWlLk6GJQsqaUBKTNV-1" vertex="1">
          <mxGeometry x="-378" y="160" width="120" height="40" as="geometry" />
        </mxCell>
        <mxCell id="-R8I4u1Fp1ptkWdgF8gj-11" value="" style="rounded=0;html=1;jettySize=auto;orthogonalLoop=1;fontSize=11;endArrow=block;endFill=0;endSize=8;strokeWidth=1;shadow=0;labelBackgroundColor=none;edgeStyle=orthogonalEdgeStyle;strokeColor=#36393d;fillColor=#eeeeee;fontColor=#000000;" parent="WIyWlLk6GJQsqaUBKTNV-1" edge="1">
          <mxGeometry relative="1" as="geometry">
            <mxPoint x="-318.2900000000001" y="200" as="sourcePoint" />
            <mxPoint x="-448" y="510" as="targetPoint" />
            <Array as="points">
              <mxPoint x="-318" y="510" />
              <mxPoint x="-448" y="510" />
            </Array>
          </mxGeometry>
        </mxCell>
        <mxCell id="-R8I4u1Fp1ptkWdgF8gj-12" value="" style="rounded=0;html=1;jettySize=auto;orthogonalLoop=1;fontSize=11;endArrow=block;endFill=0;endSize=8;strokeWidth=1;shadow=0;labelBackgroundColor=none;edgeStyle=orthogonalEdgeStyle;strokeColor=#36393d;fillColor=#eeeeee;fontColor=#000000;exitX=0.5;exitY=1;exitDx=0;exitDy=0;exitPerimeter=0;" parent="WIyWlLk6GJQsqaUBKTNV-1" source="-R8I4u1Fp1ptkWdgF8gj-9" edge="1">
          <mxGeometry relative="1" as="geometry">
            <mxPoint x="-448.2900000000001" y="290" as="sourcePoint" />
            <mxPoint x="-448" y="340" as="targetPoint" />
          </mxGeometry>
        </mxCell>
        <mxCell id="-R8I4u1Fp1ptkWdgF8gj-13" value="c = c + b[y]&lt;br&gt;i = i + length(b)&lt;br&gt;y = y - 1" style="rounded=0;whiteSpace=wrap;html=1;strokeColor=#36393d;fillColor=#eeeeee;fontColor=#000000;" parent="WIyWlLk6GJQsqaUBKTNV-1" vertex="1">
          <mxGeometry x="-508" y="340" width="120" height="50" as="geometry" />
        </mxCell>
        <mxCell id="-R8I4u1Fp1ptkWdgF8gj-14" value="" style="rounded=0;html=1;jettySize=auto;orthogonalLoop=1;fontSize=11;endArrow=block;endFill=0;endSize=8;strokeWidth=1;shadow=0;labelBackgroundColor=none;edgeStyle=orthogonalEdgeStyle;strokeColor=#36393d;fillColor=#eeeeee;fontColor=#000000;" parent="WIyWlLk6GJQsqaUBKTNV-1" edge="1">
          <mxGeometry relative="1" as="geometry">
            <mxPoint x="-448.2900000000001" y="390" as="sourcePoint" />
            <mxPoint x="-448.0200000000001" y="420" as="targetPoint" />
          </mxGeometry>
        </mxCell>
        <mxCell id="-R8I4u1Fp1ptkWdgF8gj-15" value="Цикл 3" style="strokeWidth=1;html=1;shape=mxgraph.flowchart.loop_limit;whiteSpace=wrap;strokeColor=#36393d;fillColor=#eeeeee;fontColor=#000000;direction=west;" parent="WIyWlLk6GJQsqaUBKTNV-1" vertex="1">
          <mxGeometry x="-508" y="420" width="120" height="70" as="geometry" />
        </mxCell>
        <mxCell id="-R8I4u1Fp1ptkWdgF8gj-16" value="" style="rounded=0;html=1;jettySize=auto;orthogonalLoop=1;fontSize=11;endArrow=block;endFill=0;endSize=8;strokeWidth=1;shadow=0;labelBackgroundColor=none;edgeStyle=orthogonalEdgeStyle;strokeColor=#36393d;fillColor=#eeeeee;fontColor=#000000;exitX=0.5;exitY=0;exitDx=0;exitDy=0;exitPerimeter=0;" parent="WIyWlLk6GJQsqaUBKTNV-1" source="-R8I4u1Fp1ptkWdgF8gj-15" edge="1">
          <mxGeometry relative="1" as="geometry">
            <mxPoint x="-448.28999999999996" y="490" as="sourcePoint" />
            <mxPoint x="-448" y="530" as="targetPoint" />
          </mxGeometry>
        </mxCell>
        <mxCell id="-R8I4u1Fp1ptkWdgF8gj-17" value="Цикл 1" style="strokeWidth=1;html=1;shape=mxgraph.flowchart.loop_limit;whiteSpace=wrap;strokeColor=#36393d;fillColor=#eeeeee;fontColor=#000000;direction=west;" parent="WIyWlLk6GJQsqaUBKTNV-1" vertex="1">
          <mxGeometry x="-508" y="530" width="120" height="70" as="geometry" />
        </mxCell>
        <mxCell id="-R8I4u1Fp1ptkWdgF8gj-18" value="Вывод&lt;br&gt;c" style="shape=parallelogram;perimeter=parallelogramPerimeter;whiteSpace=wrap;html=1;fixedSize=1;strokeColor=#36393d;fillColor=#eeeeee;fontColor=#000000;" parent="WIyWlLk6GJQsqaUBKTNV-1" vertex="1">
          <mxGeometry x="-508" y="630" width="120" height="50" as="geometry" />
        </mxCell>
        <mxCell id="-R8I4u1Fp1ptkWdgF8gj-19" value="" style="rounded=0;html=1;jettySize=auto;orthogonalLoop=1;fontSize=11;endArrow=block;endFill=0;endSize=8;strokeWidth=1;shadow=0;labelBackgroundColor=none;edgeStyle=orthogonalEdgeStyle;strokeColor=#36393d;fillColor=#eeeeee;fontColor=#000000;" parent="WIyWlLk6GJQsqaUBKTNV-1" edge="1">
          <mxGeometry relative="1" as="geometry">
            <mxPoint x="-448" y="600" as="sourcePoint" />
            <mxPoint x="-448.26" y="630" as="targetPoint" />
          </mxGeometry>
        </mxCell>
        <mxCell id="-R8I4u1Fp1ptkWdgF8gj-20" value="конец" style="ellipse;whiteSpace=wrap;html=1;strokeColor=#36393d;fillColor=#eeeeee;fontColor=#000000;" parent="WIyWlLk6GJQsqaUBKTNV-1" vertex="1">
          <mxGeometry x="-508" y="710" width="120" height="50" as="geometry" />
        </mxCell>
        <mxCell id="-R8I4u1Fp1ptkWdgF8gj-21" value="" style="rounded=0;html=1;jettySize=auto;orthogonalLoop=1;fontSize=11;endArrow=block;endFill=0;endSize=8;strokeWidth=1;shadow=0;labelBackgroundColor=none;edgeStyle=orthogonalEdgeStyle;strokeColor=#36393d;fillColor=#eeeeee;fontColor=#000000;" parent="WIyWlLk6GJQsqaUBKTNV-1" edge="1">
          <mxGeometry relative="1" as="geometry">
            <mxPoint x="-448.83000000000004" y="680" as="sourcePoint" />
            <mxPoint x="-448.83000000000004" y="710" as="targetPoint" />
          </mxGeometry>
        </mxCell>
        <mxCell id="-R8I4u1Fp1ptkWdgF8gj-24" value="" style="endArrow=none;dashed=1;html=1;rounded=0;entryX=1;entryY=0.5;entryDx=0;entryDy=0;strokeColor=#36393d;" parent="WIyWlLk6GJQsqaUBKTNV-1" target="-R8I4u1Fp1ptkWdgF8gj-13" edge="1">
          <mxGeometry width="50" height="50" relative="1" as="geometry">
            <mxPoint x="-250" y="365" as="sourcePoint" />
            <mxPoint x="-250" y="290" as="targetPoint" />
          </mxGeometry>
        </mxCell>
        <mxCell id="-R8I4u1Fp1ptkWdgF8gj-25" value="" style="strokeWidth=1;html=1;shape=mxgraph.flowchart.annotation_1;align=left;pointerEvents=1;strokeColor=#36393d;" parent="WIyWlLk6GJQsqaUBKTNV-1" vertex="1">
          <mxGeometry x="-250" y="345" width="10" height="40" as="geometry" />
        </mxCell>
        <mxCell id="-R8I4u1Fp1ptkWdgF8gj-26" value="length()-длина" style="text;html=1;strokeColor=none;fillColor=none;align=center;verticalAlign=middle;whiteSpace=wrap;rounded=0;fontColor=#36393d;" parent="WIyWlLk6GJQsqaUBKTNV-1" vertex="1">
          <mxGeometry x="-250" y="350" width="60" height="30" as="geometry" />
        </mxCell>
        <mxCell id="-R8I4u1Fp1ptkWdgF8gj-27" value="Да" style="text;html=1;strokeColor=none;fillColor=none;align=center;verticalAlign=middle;whiteSpace=wrap;rounded=0;fontColor=#36393d;" parent="WIyWlLk6GJQsqaUBKTNV-1" vertex="1">
          <mxGeometry x="-490" y="120" width="60" height="30" as="geometry" />
        </mxCell>
        <mxCell id="-R8I4u1Fp1ptkWdgF8gj-28" value="Нет" style="text;html=1;strokeColor=none;fillColor=none;align=center;verticalAlign=middle;whiteSpace=wrap;rounded=0;fontColor=#36393d;" parent="WIyWlLk6GJQsqaUBKTNV-1" vertex="1">
          <mxGeometry x="-410" y="70" width="60" height="30" as="geometry" />
        </mxCell>
        <mxCell id="RJ7b9VDyhJa8ieEVEk-E-0" value="y =&amp;nbsp; lenght(b)" style="rounded=0;whiteSpace=wrap;html=1;strokeColor=#36393d;fillColor=#eeeeee;fontColor=#000000;" vertex="1" parent="WIyWlLk6GJQsqaUBKTNV-1">
          <mxGeometry x="-508" y="160" width="120" height="40" as="geometry" />
        </mxCell>
      </root>
    </mxGraphModel>
  </diagram>
</mxfile>
